<svg width="14" height="8" viewBox="0 0 14 8" fill="none" xmlns="http://www.w3.org/2000/svg">
<path d="M13.0233 1.64828L7.39828 7.27328C7.34604 7.32558 7.284 7.36707 7.21572 7.39538C7.14743 7.42368 7.07423 7.43825 7.00031 7.43825C6.92639 7.43825 6.8532 7.42368 6.78491 7.39538C6.71662 7.36707 6.65458 7.32558 6.60234 7.27328L0.977344 1.64828C0.871796 1.54273 0.8125 1.39958 0.8125 1.25031C0.8125 1.10105 0.871796 0.957892 0.977344 0.852344C1.08289 0.746796 1.22605 0.6875 1.37531 0.6875C1.52458 0.6875 1.66773 0.746796 1.77328 0.852344L7.00031 6.08008L12.2273 0.852344C12.2796 0.800082 12.3417 0.758625 12.4099 0.730341C12.4782 0.702057 12.5514 0.6875 12.6253 0.6875C12.6992 0.6875 12.7724 0.702057 12.8407 0.730341C12.909 0.758625 12.971 0.800082 13.0233 0.852344C13.0755 0.904606 13.117 0.96665 13.1453 1.03493C13.1736 1.10322 13.1881 1.1764 13.1881 1.25031C13.1881 1.32422 13.1736 1.39741 13.1453 1.46569C13.117 1.53398 13.0755 1.59602 13.0233 1.64828Z" fill="#6366F1"/>
</svg>
