<svg width="78" height="78" viewBox="0 0 78 78" fill="none" xmlns="http://www.w3.org/2000/svg">
<path d="M33.3729 4.20703C35.3058 -1.01668 42.6942 -1.01668 44.6271 4.20703L51.5471 22.908C52.1548 24.5503 53.4497 25.8452 55.092 26.4529L73.793 33.3729C79.0167 35.3058 79.0167 42.6942 73.793 44.6271L55.092 51.5471C53.4497 52.1548 52.1548 53.4497 51.5471 55.092L44.6271 73.793C42.6942 79.0167 35.3058 79.0167 33.3729 73.793L26.4529 55.092C25.8452 53.4497 24.5503 52.1548 22.908 51.5471L4.20703 44.6271C-1.01668 42.6942 -1.01668 35.3058 4.20703 33.3729L22.908 26.4529C24.5503 25.8452 25.8452 24.5503 26.4529 22.908L33.3729 4.20703Z" fill="#48FFB0"/>
</svg>
