<svg width="60" height="60" viewBox="0 0 60 60" fill="none" xmlns="http://www.w3.org/2000/svg">
<rect x="25.8008" y="8.39844" width="7.8" height="33" fill="url(#paint0_linear_219_4076)"/>
<path d="M16.8008 8.39844H35.4008L25.8218 15.0914L16.8008 22.1984V8.39844Z" fill="url(#paint1_linear_219_4076)"/>
<path d="M42.6016 8.39844H24.0016L33.5806 15.0914L42.6016 22.1984V8.39844Z" fill="url(#paint2_linear_219_4076)"/>
<mask id="path-4-inside-1_219_4076" fill="white">
<path d="M0 16C0 7.16344 7.16345 0 16 0H44C52.8366 0 60 7.16345 60 16V44C60 52.8366 52.8366 60 44 60H16C7.16344 60 0 52.8366 0 44V16Z"/>
</mask>
<path d="M-6 16C-6 3.84974 3.84974 -6 16 -6H44C56.1503 -6 66 3.84974 66 16H54C54 10.4772 49.5228 6 44 6H16C10.4772 6 6 10.4772 6 16H-6ZM60 60H0H60ZM16 60C3.84974 60 -6 50.1503 -6 38V16C-6 3.84974 3.84974 -6 16 -6V6C10.4772 6 6 10.4772 6 16V44C6 52.8366 10.4772 60 16 60ZM44 -6C56.1503 -6 66 3.84974 66 16V38C66 50.1503 56.1503 60 44 60C49.5228 60 54 52.8366 54 44V16C54 10.4772 49.5228 6 44 6V-6Z" fill="url(#paint3_linear_219_4076)" mask="url(#path-4-inside-1_219_4076)"/>
<circle cx="30" cy="51.6016" r="6" fill="url(#paint4_linear_219_4076)"/>
<defs>
<linearGradient id="paint0_linear_219_4076" x1="30.0008" y1="30.2984" x2="30.0008" y2="8.39844" gradientUnits="userSpaceOnUse">
<stop stop-color="#004499"/>
<stop offset="1" stop-color="#4A0EA9"/>
</linearGradient>
<linearGradient id="paint1_linear_219_4076" x1="26.1008" y1="8.39844" x2="26.1008" y2="22.1984" gradientUnits="userSpaceOnUse">
<stop stop-color="#7B39EB"/>
<stop offset="1" stop-color="#4A0EA9"/>
</linearGradient>
<linearGradient id="paint2_linear_219_4076" x1="32.1016" y1="20.9984" x2="30.0016" y2="8.39844" gradientUnits="userSpaceOnUse">
<stop stop-color="#4A0EA9"/>
<stop offset="1" stop-color="#7C3AED"/>
</linearGradient>
<linearGradient id="paint3_linear_219_4076" x1="30" y1="0" x2="30" y2="60" gradientUnits="userSpaceOnUse">
<stop stop-color="#004499"/>
<stop offset="1" stop-color="#6000F7"/>
</linearGradient>
<linearGradient id="paint4_linear_219_4076" x1="30" y1="45.6016" x2="36" y2="64.2016" gradientUnits="userSpaceOnUse">
<stop stop-color="#7C3AED"/>
<stop offset="1" stop-color="#4A0EA9"/>
</linearGradient>
</defs>
</svg>
