<svg width="18" height="18" viewBox="0 0 18 18" fill="none" xmlns="http://www.w3.org/2000/svg">
<path d="M15.9667 18L10.1917 11.7C9.73333 12.1 9.20625 12.4167 8.61042 12.65C8.01458 12.8833 7.38056 13 6.70833 13C5.04306 13 3.63383 12.3707 2.48067 11.112C1.3275 9.85333 0.750611 8.316 0.75 6.5C0.75 4.68333 1.32689 3.146 2.48067 1.888C3.63444 0.63 5.04367 0.000666667 6.70833 0C8.37361 0 9.78314 0.629333 10.9369 1.888C12.0907 3.14667 12.6673 4.684 12.6667 6.5C12.6667 7.23333 12.5597 7.925 12.3458 8.575C12.1319 9.225 11.8417 9.8 11.475 10.3L17.25 16.6L15.9667 18ZM6.70833 11C7.85417 11 8.82828 10.5627 9.63067 9.688C10.4331 8.81333 10.8339 7.75067 10.8333 6.5C10.8333 5.25 10.4324 4.18767 9.63067 3.313C8.82889 2.43833 7.85478 2.00067 6.70833 2C5.5625 2 4.58869 2.43767 3.78692 3.313C2.98514 4.18833 2.58394 5.25067 2.58333 6.5C2.58333 7.75 2.98453 8.81267 3.78692 9.688C4.58931 10.5633 5.56311 11.0007 6.70833 11Z" fill="#9CA3AF"/>
</svg>
